<?xml version="1.0" standalone="no"?>
<!DOCTYPE svg PUBLIC "-//W3C//DTD SVG 20010904//EN"
 "http://www.w3.org/TR/2001/REC-SVG-20010904/DTD/svg10.dtd">
<svg version="1.0" xmlns="http://www.w3.org/2000/svg"
 width="500px" height="500px" viewBox="0 0 1280.000000 817.000000"
 preserveAspectRatio="xMidYMid meet">
<metadata>
Created by potrace 1.15, written by Peter Selinger 2001-2017
</metadata>
<g transform="translate(0.000000,817.000000) scale(0.100000,-0.100000)"
fill="#000000" stroke="none">
<path d="M9891 8155 c-121 -22 -233 -71 -333 -145 l-57 -43 -89 2 c-114 3
-203 -18 -303 -70 -212 -110 -340 -342 -339 -611 1 -139 29 -236 84 -287 25
-24 26 -29 26 -135 0 -61 5 -127 10 -147 6 -20 33 -62 60 -93 28 -32 57 -71
65 -87 14 -26 14 -30 0 -34 -8 -3 -22 -7 -31 -10 -29 -9 -11 -40 25 -43 l34
-3 -7 -57 c-4 -31 -20 -95 -37 -142 -52 -142 -55 -163 -32 -202 13 -22 32 -38
60 -47 37 -13 41 -18 52 -65 6 -28 25 -75 41 -105 17 -30 30 -60 30 -66 0 -7
9 -20 20 -30 11 -10 20 -26 20 -35 0 -22 42 -68 73 -79 21 -8 25 -17 30 -79
11 -137 51 -207 140 -247 l49 -21 -253 -58 c-281 -63 -342 -81 -359 -101 -6
-7 -19 -11 -29 -8 -35 9 -338 -369 -573 -717 -221 -326 -975 -1542 -983 -1586
-24 -124 261 -212 479 -147 115 34 246 122 233 156 -10 26 -32 21 -84 -20 -61
-46 -133 -78 -212 -94 -147 -28 -361 25 -361 91 0 24 682 1127 906 1465 191
289 418 594 554 745 l31 35 -5 -34 c-20 -114 -28 -300 -23 -506 8 -304 39
-542 118 -902 l41 -187 -58 -52 -59 -52 -8 51 c-8 56 -18 72 -40 64 -10 -4
-16 -32 -20 -104 -7 -124 -39 -215 -121 -338 -46 -69 -127 -158 -345 -378
-304 -307 -353 -345 -423 -335 -18 3 -45 1 -60 -4 -22 -8 -38 -5 -73 12 -53
26 -70 22 -78 -17 -9 -47 2 -50 142 -48 111 2 137 6 178 25 36 17 120 95 334
309 157 157 311 320 341 361 91 123 158 274 158 359 1 32 2 34 14 19 19 -26
33 -22 84 22 33 29 48 37 53 28 3 -7 28 -96 55 -197 28 -104 55 -186 62 -189
8 -2 20 2 27 9 12 12 8 35 -26 159 -211 767 -280 1308 -228 1795 15 136 24
164 62 179 18 8 156 42 307 76 151 35 281 68 288 73 6 5 12 18 12 28 0 15 7
19 33 19 17 0 48 4 66 10 19 5 36 8 38 6 2 -1 -12 -34 -31 -72 -98 -203 -236
-627 -236 -730 0 -59 65 -91 134 -64 14 5 52 34 84 63 66 61 119 85 151 67 12
-6 30 -33 42 -61 12 -28 39 -65 61 -83 64 -55 168 -74 176 -32 5 23 -14 36
-51 36 -57 0 -109 43 -142 116 -27 61 -56 84 -108 84 -54 0 -94 -20 -158 -78
-63 -58 -104 -78 -124 -62 -35 29 122 525 241 763 29 57 60 63 104 19 36 -36
40 -50 114 -445 35 -180 67 -332 73 -338 13 -13 43 -1 43 17 0 8 -29 168 -65
356 -71 373 -89 431 -148 469 l-35 23 72 42 c68 40 234 173 285 227 25 28 23
57 -4 57 -9 0 -49 -29 -88 -65 -110 -99 -183 -151 -282 -201 -104 -51 -222
-80 -291 -69 -90 13 -144 96 -144 222 0 51 1 53 32 61 19 5 34 16 36 26 6 30
-12 38 -56 26 -33 -8 -48 -8 -77 4 -61 26 -45 42 48 49 152 11 227 49 227 114
0 43 -26 55 -50 23 -17 -22 -20 -23 -101 -15 -46 5 -120 9 -164 10 l-80 0 -22
65 c-12 35 -19 68 -17 72 7 12 72 10 95 -3 22 -12 49 3 49 27 0 26 -44 38
-144 39 -138 0 -139 2 -70 185 24 65 28 90 29 180 0 119 -15 162 -85 235 -61
64 -63 72 -68 281 -5 217 4 268 63 333 38 42 61 54 208 116 175 72 274 154
359 297 43 73 54 130 26 136 -12 2 -28 -19 -57 -76 -74 -140 -179 -236 -327
-297 -201 -82 -232 -103 -295 -198 -38 -56 -40 -65 -37 -119 2 -32 0 -58 -4
-58 -16 0 -31 83 -35 201 -6 148 13 235 74 352 121 229 402 347 641 268 62
-20 75 -22 83 -10 13 21 6 32 -30 51 l-33 16 44 32 c59 44 103 65 195 96 106
36 300 45 424 20 299 -61 633 -257 795 -468 25 -32 66 -102 90 -154 34 -73 49
-94 62 -92 26 6 19 57 -17 134 -93 199 -301 384 -581 518 -255 121 -475 160
-689 121z m-531 -2364 c18 -6 3 -10 -57 -15 -81 -8 -109 -4 -98 15 7 10 118
10 155 0z"/>
<path d="M10657 7673 c-21 -20 -4 -42 51 -62 302 -116 508 -393 537 -722 4
-41 11 -84 17 -97 18 -36 -7 -145 -57 -249 -34 -69 -61 -108 -111 -159 -53
-53 -65 -71 -57 -83 10 -16 16 -18 60 -20 12 0 27 -10 33 -22 10 -18 6 -26
-36 -64 -46 -42 -47 -45 -31 -63 15 -17 16 -21 3 -31 -21 -17 -70 -10 -74 11
-2 9 6 26 17 37 12 12 21 31 21 42 0 19 -4 21 -34 16 -54 -9 -76 17 -116 134
l-28 81 20 47 c59 139 29 264 -79 328 -51 30 -54 35 -12 23 109 -32 178 -107
279 -305 19 -37 60 -47 60 -15 0 29 -70 162 -118 225 -72 95 -176 155 -269
155 -39 0 -43 -2 -43 -24 0 -20 -6 -24 -46 -30 -35 -4 -51 -2 -72 13 -15 10
-54 33 -86 52 -71 41 -179 144 -226 217 -25 39 -39 52 -54 50 -37 -5 -28 -34
33 -115 65 -87 150 -162 242 -215 61 -35 69 -51 28 -57 -13 -1 -46 -23 -72
-48 -70 -65 -144 -96 -217 -91 -100 7 -151 58 -215 214 -128 310 -293 544
-431 609 -36 17 -75 27 -112 28 -55 2 -57 1 -57 -23 0 -23 5 -25 55 -31 91
-10 157 -52 242 -157 74 -91 169 -254 223 -384 67 -160 82 -188 124 -231 93
-99 227 -111 352 -32 44 27 55 31 62 19 14 -25 36 -15 56 25 70 137 245 142
310 8 26 -54 26 -92 0 -162 -24 -64 -118 -210 -177 -275 -34 -37 -41 -41 -42
-24 0 30 -41 64 -76 64 -62 0 -98 -55 -70 -110 13 -27 13 -29 -7 -32 -12 -2
-23 -11 -25 -20 -5 -26 56 -52 102 -44 47 9 142 97 216 200 30 41 57 75 60 76
3 0 14 -21 23 -47 10 -26 29 -67 43 -91 24 -41 26 -53 29 -195 4 -219 43 -384
137 -570 41 -82 63 -101 83 -73 11 14 15 6 29 -55 50 -223 60 -594 21 -808
-24 -134 -60 -249 -85 -276 -15 -16 -19 -30 -15 -47 13 -53 -125 -361 -287
-636 -49 -83 -99 -175 -110 -202 -11 -28 -24 -50 -27 -50 -14 0 -318 669 -456
1005 -84 204 -90 215 -112 215 -25 0 -26 -29 -2 -88 103 -258 327 -764 480
-1083 l80 -166 14 -269 c8 -148 16 -305 19 -349 l6 -80 -23 27 c-34 40 -63 52
-97 38 -23 -9 -29 -20 -35 -56 -7 -52 0 -81 28 -111 26 -29 79 -31 106 -4 18
18 19 18 25 -18 3 -20 6 -68 6 -107 0 -52 4 -75 16 -84 12 -11 18 -11 30 1 13
13 12 61 -6 390 -11 205 -23 448 -25 538 l-5 163 39 82 c21 44 71 135 111 201
110 183 265 519 295 637 5 21 31 42 108 90 56 34 115 75 131 90 26 27 28 33
23 83 -6 63 -4 67 77 90 78 23 152 16 244 -23 98 -42 140 -50 149 -27 9 24
-20 168 -62 315 -94 326 -291 712 -427 836 -57 52 -89 67 -216 104 -106 31
-140 64 -153 153 -10 61 -9 70 7 81 22 16 12 46 -16 46 -11 0 -20 4 -20 8 0 5
13 7 29 4 34 -5 162 63 201 107 22 25 33 29 100 33 59 4 68 3 43 -5 -18 -5
-33 -14 -33 -20 0 -5 -11 -6 -24 -3 -32 8 -56 -18 -35 -39 8 -8 105 -48 217
-89 214 -78 265 -104 305 -158 14 -18 63 -123 109 -233 115 -278 115 -279 -16
-448 -68 -87 -86 -183 -33 -175 16 2 23 12 28 38 7 45 23 74 72 133 53 64 69
61 132 -31 67 -97 120 -132 281 -186 180 -60 237 -92 275 -152 10 -17 19 -33
19 -35 0 -2 -51 -3 -112 -1 -138 4 -231 -13 -340 -65 -85 -39 -108 -63 -83
-83 12 -10 29 -6 87 23 40 20 100 43 132 51 78 21 199 29 255 19 43 -8 46 -11
67 -66 55 -141 68 -221 69 -412 0 -127 -4 -194 -14 -229 -13 -45 -13 -50 3
-62 13 -9 15 -17 8 -31 -5 -10 -220 -522 -477 -1138 -256 -616 -473 -1131
-482 -1143 -11 -18 -21 -22 -38 -18 -14 4 -27 0 -35 -9 -19 -23 5 -45 47 -45
41 0 85 41 103 95 9 27 22 39 57 55 25 11 49 20 53 20 9 0 26 -265 23 -367 -2
-103 -31 -151 -117 -193 -55 -27 -84 -34 -212 -47 -174 -18 -248 -38 -252 -69
-4 -29 20 -36 63 -18 20 8 100 21 178 29 151 16 200 26 257 55 48 25 116 100
125 138 9 42 20 47 45 22 16 -16 20 -33 20 -83 0 -53 6 -76 40 -145 46 -96 80
-201 80 -247 0 -38 -25 -61 -106 -96 -106 -45 -208 -61 -364 -58 -129 4 -145
2 -148 -13 -6 -33 36 -42 188 -43 167 0 235 14 368 76 57 26 84 34 87 26 69
-188 71 -192 93 -195 31 -5 29 17 -17 155 -21 65 -46 156 -54 202 -10 53 -32
117 -58 170 -32 66 -43 104 -50 164 -9 93 -32 138 -77 152 -31 9 -32 11 -32
60 0 27 -5 118 -11 202 l-12 151 26 50 c29 56 43 127 53 279 4 66 3 107 -3
115 -8 10 86 244 343 861 194 466 351 854 348 862 -4 8 -13 15 -20 15 -12 0
-12 3 0 23 23 35 39 198 32 327 -7 131 -31 249 -74 366 -26 72 -28 84 -15 97
33 33 -45 135 -140 183 -26 14 -103 44 -171 68 -172 60 -206 81 -267 172 -27
41 -61 80 -75 86 -28 13 -27 11 -13 61 7 27 7 53 0 88 -11 48 -131 351 -173
432 -49 97 -116 139 -361 227 l-118 43 40 18 c57 25 97 57 127 101 27 38 27
68 0 68 -7 0 -42 -13 -77 -30 -36 -16 -98 -35 -142 -41 -70 -10 -82 -10 -112
7 -19 10 -36 28 -39 41 -4 12 -17 30 -30 40 l-23 18 49 63 c27 36 59 85 72
111 58 113 94 313 64 349 -8 9 -19 53 -26 98 -43 312 -243 569 -540 697 -65
28 -84 32 -95 20z m-107 -1458 c13 -16 6 -35 -15 -35 -18 0 -28 17 -21 35 7
19 20 19 36 0z m640 -30 c0 -8 -82 -65 -94 -65 -6 0 3 8 19 18 17 11 36 26 44
35 13 16 31 23 31 12z m-170 -459 c38 -84 111 -297 107 -310 -9 -27 -112 226
-141 347 -11 46 4 30 34 -37z m170 -50 c41 -12 89 -30 105 -39 158 -83 404
-570 505 -1001 12 -48 19 -91 16 -93 -3 -3 -33 6 -66 20 -80 35 -166 48 -236
37 -117 -19 -245 -105 -189 -126 25 -10 37 -41 25 -63 -8 -17 -147 -111 -162
-111 -3 0 3 30 14 68 46 166 68 473 49 682 -19 206 -92 514 -147 623 -18 34
-13 34 86 3z m-576 -3198 c18 -26 21 -54 6 -63 -19 -12 -40 16 -40 51 0 39 12
43 34 12z m1417 -488 c-6 -57 -18 -117 -27 -135 -14 -30 -90 -92 -100 -83 -2
3 26 77 63 166 37 89 69 160 71 157 2 -2 -1 -49 -7 -105z"/>
<path d="M11200 5552 c0 -55 241 -685 276 -722 12 -12 16 -12 30 2 15 15 11
29 -49 175 -73 176 -128 320 -178 466 -29 85 -36 97 -56 97 -15 0 -23 -6 -23
-18z"/>
<path d="M9380 6781 c-119 -38 -229 -112 -217 -145 10 -24 33 -19 82 18 54 42
138 75 227 89 64 10 83 8 229 -20 31 -6 46 19 24 41 -38 38 -248 48 -345 17z"/>
<path d="M10630 6712 c-50 -27 -89 -95 -101 -176 -9 -58 -9 -71 5 -84 21 -21
46 0 46 40 0 96 52 178 113 178 19 0 40 -7 47 -15 16 -20 49 -19 57 1 3 10 -4
26 -19 41 -35 34 -101 41 -148 15z"/>
<path d="M9264 6584 c-4 -17 -1 -38 9 -58 9 -17 17 -40 19 -51 2 -16 13 -21
48 -25 25 -3 61 -14 81 -24 32 -16 40 -17 65 -5 16 8 35 28 43 45 10 23 27 37
66 53 29 12 61 31 71 42 17 18 17 21 1 37 -14 14 -20 14 -35 4 -53 -39 -145
-62 -243 -62 -60 0 -73 8 -74 45 0 13 -8 21 -22 23 -17 3 -24 -3 -29 -24z
m211 -104 c-3 -5 -13 -10 -21 -10 -8 0 -14 5 -14 10 0 6 9 10 21 10 11 0 17
-4 14 -10z"/>
<path d="M11150 5990 c-20 -13 -5 -78 28 -119 64 -79 114 -99 360 -144 105
-20 166 -49 197 -95 32 -46 31 -54 -1 -41 -15 5 -35 7 -46 3 -22 -7 -21 -18 7
-94 12 -32 16 -68 13 -125 -3 -74 -2 -80 17 -80 27 0 48 64 42 133 -3 41 -1
52 9 48 42 -16 58 78 25 149 -40 87 -124 138 -269 161 -204 33 -247 48 -299
108 -17 19 -34 48 -38 64 -7 33 -24 45 -45 32z"/>
<path d="M9776 5178 c-2 -13 -9 -74 -15 -136 -6 -61 -19 -146 -27 -188 -15
-71 -15 -78 1 -93 15 -15 17 -15 30 2 24 32 76 385 62 421 -10 25 -46 20 -51
-6z"/>
<path d="M12092 4918 c-47 -58 -322 -894 -322 -980 0 -21 27 -35 41 -21 5 5
27 76 49 158 48 174 180 574 239 724 33 80 39 106 30 117 -14 17 -24 18 -37 2z"/>
<path d="M12090 3990 c-150 -22 -234 -60 -203 -91 9 -9 32 -6 95 11 172 47
381 37 546 -26 98 -38 122 -41 122 -16 0 26 -12 34 -92 66 -131 52 -330 75
-468 56z"/>
<path d="M4464 3936 c-3 -7 9 -33 25 -57 43 -62 58 -140 43 -226 -11 -67 -19
-90 -100 -285 -49 -117 -67 -199 -59 -279 9 -97 67 -193 99 -161 9 9 6 22 -12
59 -29 57 -38 156 -21 234 7 30 36 110 66 179 71 166 88 227 87 321 0 62 -6
90 -25 133 -37 81 -88 122 -103 82z"/>
<path d="M11812 3887 c-6 -6 -20 -37 -32 -67 -27 -70 -83 -167 -205 -355 -119
-184 -187 -322 -217 -437 -20 -76 -26 -88 -44 -88 -41 0 -67 -55 -48 -104 8
-21 234 -201 289 -230 58 -31 113 -40 164 -26 35 9 42 15 39 33 -3 20 -8 22
-60 19 -40 -3 -69 2 -100 16 -47 21 -273 196 -282 218 -7 19 11 18 22 -2 5 -9
17 -14 28 -12 15 3 20 16 26 63 19 147 83 291 241 535 162 251 240 408 216
436 -14 17 -24 18 -37 1z"/>
<path d="M12214 3876 c-13 -33 3 -46 58 -46 34 0 74 -10 113 -26 83 -36 101
-39 108 -20 15 38 -97 92 -210 103 -52 5 -64 3 -69 -11z"/>
<path d="M4322 3828 c-15 -8 -22 -20 -22 -37 1 -14 -2 -39 -6 -54 -5 -22 -1
-34 16 -53 32 -33 74 -32 111 5 46 46 37 106 -21 136 -34 17 -46 18 -78 3z
m63 -78 c0 -16 -6 -26 -17 -28 -14 -3 -18 3 -18 28 0 25 4 31 18 28 11 -2 17
-12 17 -28z"/>
<path d="M4084 3815 c-4 -10 10 -33 36 -61 93 -101 113 -210 70 -374 -14 -53
-23 -114 -23 -162 0 -67 5 -86 35 -150 38 -81 106 -155 170 -187 45 -22 68
-18 68 10 0 12 -15 26 -40 39 -91 47 -166 158 -177 263 -4 40 2 87 22 177 45
198 24 309 -80 416 -43 45 -71 55 -81 29z"/>
<path d="M7 3673 c-4 -3 -7 -12 -7 -20 0 -23 324 -717 661 -1417 88 -181 159
-332 159 -336 0 -11 -148 -30 -310 -40 -169 -11 -248 -27 -264 -53 -21 -32 5
-40 85 -23 41 8 128 17 194 21 66 4 162 13 212 21 51 8 97 14 102 14 6 0 91
-161 190 -357 100 -197 191 -370 204 -385 18 -22 48 -35 162 -67 429 -121
1694 -438 2077 -521 205 -44 234 -47 257 -27 9 8 61 20 116 26 165 21 910 149
1295 222 l105 20 324 -80 c372 -93 510 -129 816 -213 121 -33 268 -68 328 -78
59 -11 194 -44 300 -74 105 -30 418 -111 695 -181 l503 -125 197 34 c108 20
522 90 920 156 701 116 1315 224 1347 236 9 4 15 15 13 28 -4 24 -31 31 -498
131 -168 36 -352 76 -410 89 l-105 24 46 21 c55 25 207 51 234 40 11 -5 121
-44 245 -88 124 -44 371 -134 550 -201 179 -66 334 -119 344 -118 22 3 29 17
18 35 -7 12 -263 109 -732 279 -113 41 -232 84 -265 97 -33 12 -53 23 -43 25
9 2 33 -4 53 -12 79 -33 200 -14 343 54 82 39 84 39 115 23 106 -55 204 -25
251 76 14 30 26 45 37 43 15 -3 788 452 801 472 11 17 4 31 -18 34 -11 2 -179
-93 -399 -224 -209 -124 -386 -228 -392 -231 -9 -3 -13 5 -13 24 0 17 -9 56
-21 89 -11 32 -23 91 -25 129 -14 225 -140 421 -338 526 l-59 32 24 18 c13 11
71 51 129 90 91 61 105 68 111 52 6 -15 26 -21 111 -30 129 -15 204 -42 257
-93 44 -43 65 -50 75 -24 6 17 -18 54 -56 83 -66 52 -191 90 -291 91 -63 0
-59 13 24 68 165 111 231 182 291 309 l30 63 57 0 c76 0 198 -32 270 -70 146
-78 248 -200 305 -365 16 -46 26 -60 41 -60 35 0 25 68 -24 170 -81 166 -259
313 -436 359 -68 17 -231 35 -244 26 -5 -3 -19 -29 -30 -58 -49 -124 -124
-212 -253 -299 -55 -37 -105 -75 -112 -85 -6 -10 -19 -18 -28 -18 -20 0 -162
-89 -250 -156 -31 -24 -63 -44 -70 -44 -8 0 -80 -41 -161 -91 -139 -86 -147
-89 -169 -75 -39 25 -263 95 -468 146 -178 45 -197 52 -224 81 -28 32 -28 32
-22 128 4 53 10 125 14 160 7 63 7 63 26 42 24 -26 66 -28 66 -3 0 10 -25 42
-56 72 -87 84 -94 108 -111 354 -8 116 -16 221 -19 234 -5 25 -41 31 -50 9 -3
-8 2 -110 11 -227 14 -199 26 -281 45 -305 22 -28 30 -194 15 -322 -10 -94 5
-152 52 -193 l33 -30 -10 -64 c-19 -120 -72 -231 -148 -314 l-48 -51 -61 14
c-164 38 -257 27 -393 -47 l-74 -41 74 84 c179 203 393 532 370 569 -5 8 -3
22 6 34 38 55 -6 121 -65 96 -17 -7 -37 -26 -46 -46 -11 -24 -23 -34 -39 -34
-23 0 -88 -42 -117 -76 -9 -10 -61 -82 -114 -159 -54 -77 -145 -202 -202 -277
l-104 -137 -82 30 c-45 17 -262 96 -482 175 -220 80 -411 150 -425 156 l-25
11 30 8 c17 5 68 13 114 19 45 5 97 18 115 28 34 19 68 76 59 98 -8 22 -43 16
-52 -9 -15 -38 -36 -48 -134 -62 -51 -7 -112 -19 -136 -26 -38 -11 -42 -15
-39 -39 4 -26 2 -27 -41 -28 -144 -5 -600 -62 -856 -107 -76 -14 -142 -25
-146 -25 -4 0 0 21 8 48 23 68 22 231 -1 306 -23 78 -68 166 -107 211 l-31 35
49 21 c105 46 287 114 453 171 176 59 470 148 493 148 7 0 13 -10 13 -23 3
-39 61 -157 79 -157 27 0 29 30 6 83 l-21 52 21 16 c15 11 19 22 14 37 -5 17
-2 22 13 22 32 0 52 32 49 78 -1 23 -8 47 -14 53 -19 19 -43 -8 -43 -47 0 -31
-1 -33 -25 -24 -19 7 -27 5 -37 -8 -7 -9 -24 -19 -38 -21 -110 -15 -613 -179
-881 -286 -89 -36 -170 -63 -178 -60 -9 2 -40 -2 -69 -9 -52 -14 -53 -14 -149
25 -126 51 -291 104 -373 120 -72 13 -246 17 -300 6 l-35 -7 0 193 c0 192 0
192 -22 195 -14 2 -23 -2 -23 -10 0 -7 -2 -92 -4 -188 -5 -190 -23 -334 -62
-503 -14 -59 -23 -114 -20 -122 7 -20 33 -19 45 3 12 23 59 233 67 304 4 32
13 63 22 70 11 9 57 13 156 13 115 0 157 -5 231 -24 100 -26 305 -100 305
-110 0 -3 -97 -30 -215 -60 -239 -60 -314 -87 -358 -128 -34 -32 -57 -80 -57
-119 0 -22 -3 -25 -22 -21 -13 3 -66 14 -118 23 -80 15 -105 16 -164 5 -80
-13 -184 -55 -251 -100 -37 -25 -50 -29 -61 -20 -27 22 -150 -23 -252 -93 -24
-17 -46 -28 -49 -25 -2 3 -25 -3 -50 -14 -25 -10 -50 -16 -56 -12 -7 5 -111
26 -232 48 l-220 40 -160 -22 c-88 -12 -188 -24 -223 -25 l-64 -3 -90 203
c-49 112 -88 205 -86 207 2 2 73 10 158 19 85 10 244 29 352 45 l198 27 25
-53 c47 -94 153 -164 225 -148 26 6 30 3 36 -22 52 -229 70 -272 99 -243 12
13 11 27 -10 110 -61 243 -113 535 -145 814 -11 93 -25 175 -31 182 -14 17
-39 7 -39 -16 0 -13 -11 -19 -41 -24 -51 -8 -94 -49 -108 -102 -17 -67 -34
-285 -28 -366 4 -43 5 -78 3 -78 -3 0 -87 -11 -188 -26 -186 -25 -531 -64
-536 -59 -2 1 -60 130 -131 286 -174 386 -326 706 -359 753 -27 39 -29 40
-132 58 -58 10 -451 81 -875 158 -1409 255 -1554 278 -1578 253z m201 -68
c179 -27 2178 -382 2310 -411 20 -4 43 -43 127 -217 100 -205 319 -685 365
-797 12 -30 30 -71 40 -90 19 -36 221 -494 456 -1031 125 -287 184 -449 184
-505 0 -18 -6 -24 -21 -24 -83 0 -1174 266 -2154 525 -33 9 -91 25 -130 36
-38 11 -78 22 -87 25 -9 3 -28 24 -42 48 -92 157 -746 1505 -1059 2181 -140
303 -129 275 -107 275 11 0 64 -7 118 -15z m3769 -877 c6 -7 13 -41 16 -74 6
-54 4 -64 -15 -80 -50 -45 -62 -146 -28 -244 10 -30 18 -56 17 -57 -1 -1 -25
-3 -52 -5 l-50 -3 -3 100 c-6 190 21 353 60 368 23 10 45 7 55 -5z m48 -320
c8 -54 15 -105 15 -113 0 -34 -21 -1 -41 66 -20 65 -20 123 -1 153 8 13 8 9
27 -106z m45 -262 c7 -41 9 -79 6 -85 -10 -15 -52 -14 -84 3 -55 29 -128 131
-100 141 16 5 71 11 124 13 l41 2 13 -74z m2025 7 c55 -67 87 -131 111 -223
22 -86 15 -226 -13 -291 l-20 -45 -111 -23 c-62 -13 -165 -36 -229 -52 -65
-15 -119 -27 -120 -26 -1 2 10 34 24 72 49 132 32 282 -42 379 -18 24 -35 52
-37 62 -2 11 -12 20 -24 22 -11 2 -42 13 -68 26 l-48 23 259 66 c142 36 261
66 264 66 4 1 28 -25 54 -56z m2905 -97 c0 -3 -4 -8 -10 -11 -5 -3 -10 -1 -10
4 0 6 5 11 10 11 6 0 10 -2 10 -4z m-3478 -44 c6 -6 -30 -26 -99 -55 -152 -63
-153 -64 -153 -33 0 35 44 82 88 95 42 12 150 7 164 -7z m3438 -42 c12 -7 11
-15 -10 -52 -58 -106 -148 -241 -224 -338 -82 -105 -82 -105 -124 -104 -47 2
-76 20 -69 43 4 16 253 368 285 405 42 47 107 68 142 46z m-3280 -113 c28 -65
36 -143 20 -215 -24 -116 -100 -213 -100 -129 0 23 -6 37 -16 41 -25 9 -31 0
-38 -55 -7 -53 -31 -107 -65 -146 -18 -21 -22 -22 -82 -12 -35 6 -67 15 -72
18 -4 4 5 34 20 67 20 43 27 75 27 123 1 57 -2 65 -25 83 -22 16 -30 18 -48 9
-28 -16 -27 -39 4 -51 14 -5 25 -16 25 -24 0 -32 -41 -143 -62 -168 l-23 -27
-70 14 c-38 8 -103 22 -142 31 l-73 15 26 51 c34 67 95 132 149 157 53 25 60
35 39 55 -14 14 -19 14 -52 0 -91 -37 -160 -121 -227 -273 -26 -58 -56 -116
-68 -128 -28 -31 -64 -30 -79 2 -26 57 62 309 145 418 21 26 37 56 37 68 0 34
-41 19 -75 -28 -16 -23 -35 -42 -41 -42 -6 -1 -103 -87 -215 -192 -225 -210
-242 -224 -264 -215 -13 5 -13 10 2 48 9 24 29 53 45 66 21 17 27 29 22 46
-11 47 167 241 289 315 141 84 252 106 391 77 43 -9 93 -16 111 -16 18 0 38
-7 45 -15 17 -20 41 -19 46 3 3 11 32 27 77 44 40 14 108 42 152 62 l80 35 32
-31 c17 -17 41 -53 53 -81z m3870 -87 c98 -24 230 -63 383 -111 20 -7 37 -16
37 -20 0 -10 -90 -62 -97 -56 -2 3 -64 -23 -136 -59 -73 -35 -172 -77 -222
-93 -98 -33 -254 -56 -297 -44 l-26 8 45 59 c24 33 55 81 69 107 27 55 64 181
64 222 0 33 -10 34 180 -13z m937 -55 c108 -71 194 -183 232 -298 20 -63 44
-205 36 -218 -3 -4 2 -23 11 -44 44 -107 38 -203 -17 -249 -76 -64 -178 -8
-261 144 -121 220 -265 369 -452 466 -79 41 -79 42 -55 57 13 9 98 61 188 116
l164 100 50 -19 c28 -11 74 -35 104 -55z m-6013 -48 c-44 -46 -97 -115 -120
-153 -33 -57 -48 -73 -90 -93 -64 -32 -173 -41 -209 -17 -14 9 -23 21 -19 27
20 33 475 319 508 319 4 0 -27 -38 -70 -83z m3333 -148 c274 -99 499 -182 501
-183 1 -2 -20 -31 -48 -66 -27 -34 -50 -70 -50 -79 0 -10 -15 -24 -32 -33 -18
-9 -55 -35 -81 -58 l-48 -42 -137 32 c-75 18 -273 63 -438 100 l-301 67 -179
-35 c-99 -19 -317 -63 -486 -96 l-308 -62 0 24 c0 14 8 31 18 38 13 10 15 17
6 31 -13 21 -59 32 -414 103 -140 28 -261 53 -267 55 -9 3 -5 16 12 42 38 58
44 63 75 63 17 0 31 0 33 0 3 1 39 10 222 53 396 94 819 163 1235 202 96 9
177 18 179 21 2 2 6 4 7 4 2 0 227 -81 501 -181z m-3905 139 c98 -17 176 -33
174 -36 -3 -2 -37 -10 -77 -18 -83 -16 -109 -34 -109 -77 0 -35 34 -77 62 -77
11 0 18 -7 18 -19 0 -27 39 -71 76 -87 43 -18 118 -18 180 1 27 8 49 15 49 15
0 0 0 -19 0 -41 0 -33 5 -46 26 -61 46 -35 79 -18 212 106 210 194 241 222
233 201 -25 -60 -56 -197 -56 -243 0 -46 4 -58 30 -84 27 -27 36 -30 71 -25
51 7 83 36 119 108 l29 56 138 -28 c76 -16 300 -60 498 -99 443 -86 476 -94
450 -103 -41 -13 -804 -137 -1675 -272 -338 -52 -623 -100 -633 -106 -11 -6
-20 -9 -22 -7 -7 8 -16 48 -11 48 3 0 131 18 283 40 620 90 895 135 925 151
37 20 15 46 -58 70 -117 39 -1222 305 -1385 333 -34 6 -37 10 -82 113 -26 58
-45 109 -42 112 3 3 92 17 198 32 106 15 194 27 197 28 3 1 85 -13 182 -31z
m181 -123 c-57 -38 -111 -46 -133 -20 -15 18 -5 23 84 40 100 20 105 18 49
-20z m5883 -45 c170 -77 350 -245 444 -417 l23 -42 -24 -21 c-43 -36 -262
-139 -339 -160 -41 -11 -123 -26 -181 -34 -126 -18 -178 -34 -284 -91 -124
-67 -160 -74 -485 -96 -236 -17 -304 -19 -339 -9 -50 13 -47 21 16 35 50 11
76 36 56 56 -9 9 -29 7 -85 -6 -77 -18 -369 -34 -355 -19 5 5 90 52 190 105
134 72 182 102 182 115 0 11 -8 20 -17 22 -10 2 -96 -37 -191 -87 -150 -78
-181 -91 -239 -97 -62 -6 -68 -5 -92 19 -43 44 -28 113 35 158 18 13 116 53
218 90 183 66 209 81 178 107 -10 9 -54 -3 -191 -52 -219 -79 -260 -103 -305
-179 -31 -52 -37 -58 -64 -55 -17 2 -33 10 -37 18 -32 64 -32 68 -20 106 16
48 98 130 168 168 29 15 114 50 189 77 75 27 192 77 260 111 109 54 134 63
192 66 80 5 181 -14 181 -32 0 -25 23 -35 49 -21 18 9 53 11 126 8 165 -9 316
31 535 141 60 30 114 50 125 48 11 -3 48 -17 81 -32z m-1393 -70 c19 0 19 -2
-6 -28 -29 -30 -35 -58 -14 -65 6 -2 9 -7 6 -11 -9 -9 -252 -97 -257 -92 -2 2
33 50 78 107 45 57 87 110 93 120 9 15 13 14 45 -7 19 -13 44 -24 55 -24z
m-4793 -146 c477 -110 981 -238 968 -245 -7 -4 -121 -23 -253 -43 -132 -20
-255 -39 -274 -42 -28 -4 -33 -3 -28 10 7 18 -17 46 -40 46 -31 0 -3 13 44 21
35 5 67 2 121 -13 40 -10 81 -16 92 -13 21 7 27 30 10 40 -6 4 -10 14 -9 23 4
42 2 43 -88 36 -78 -6 -98 -3 -174 20 -83 25 -86 27 -81 53 l5 26 -72 -7 c-87
-9 -180 13 -188 45 -5 16 -14 19 -67 19 -37 0 -91 10 -140 26 -73 23 -81 24
-95 9 -15 -15 -14 -18 8 -36 l23 -19 -26 0 c-14 0 -26 2 -26 4 0 2 -11 29 -25
59 l-24 56 32 -6 c17 -3 156 -34 307 -69z m3618 -124 c507 -113 623 -143 616
-159 -4 -9 -9 -45 -10 -82 -2 -36 -13 -104 -25 -151 -20 -72 -21 -88 -10 -102
29 -34 63 -20 132 56 l65 71 22 -37 c26 -43 79 -70 130 -64 28 3 35 0 42 -17
15 -38 59 -48 191 -43 94 4 121 2 127 -8 4 -8 25 -23 47 -34 49 -25 137 -26
451 -4 213 15 257 22 399 64 37 11 76 5 487 -84 245 -53 450 -96 454 -96 33 0
-33 -15 -221 -49 -183 -34 -1964 -335 -2060 -348 -32 -5 -836 193 -1190 292
-110 31 -256 67 -325 80 -69 14 -282 67 -475 118 -192 52 -484 127 -647 168
-163 40 -295 76 -293 80 3 3 28 9 58 12 29 4 143 29 252 56 369 91 468 113
1005 222 294 59 538 108 543 108 4 1 110 -22 235 -49z m-3638 22 l55 -18 -56
-10 c-46 -8 -67 -7 -130 10 -71 20 -73 21 -39 27 62 11 114 8 170 -9z m259
-79 l86 -27 -55 -8 c-45 -7 -69 -5 -132 13 -43 13 -76 25 -73 27 3 3 22 8 42
12 21 4 40 8 42 9 2 0 42 -11 90 -26z m2121 -13 c0 -23 -5 -31 -22 -35 -239
-54 -477 -111 -568 -134 -63 -17 -146 -35 -185 -41 -163 -24 -226 -42 -235
-65 -7 -19 -21 -25 -77 -34 -37 -7 -243 -43 -458 -81 -354 -63 -724 -124 -800
-132 -26 -3 -31 1 -41 32 -6 19 -14 56 -16 83 -5 42 -3 48 16 52 11 3 284 45
606 95 766 118 1449 229 1690 274 41 8 78 14 83 15 4 1 7 -12 7 -29z m-2306
-40 c26 0 -8 -12 -58 -20 -50 -8 -63 -6 -102 12 -24 12 -44 25 -44 29 0 16 67
14 130 -3 36 -10 69 -18 74 -18z m-219 -40 c3 -5 -1 -10 -9 -10 -9 0 -16 5
-16 10 0 6 4 10 9 10 6 0 13 -4 16 -10z m453 -32 c45 -12 82 -25 82 -29 0 -3
-55 -13 -122 -23 -68 -9 -139 -20 -158 -23 -33 -6 -34 -5 -20 12 13 16 12 20
-14 40 l-29 23 64 10 c98 15 108 14 197 -10z m-299 -47 c30 -15 50 -30 45 -33
-5 -3 -36 -9 -69 -12 -33 -4 -67 -9 -76 -12 -12 -3 -21 6 -32 33 -14 37 -14
38 7 45 41 12 71 7 125 -21z m6728 2 c3 -9 -58 -53 -74 -53 -3 0 8 15 24 34
28 34 43 40 50 19z m-121 -12 c-19 -21 -136 -77 -181 -86 -16 -4 5 9 47 28 43
19 92 44 110 56 41 26 46 26 24 2z m-2309 -129 c8 -5 3 -16 -14 -37 -24 -29
-25 -29 -19 -5 3 14 6 31 6 38 0 14 9 15 27 4z"/>
<path d="M126 3574 c-25 -24 -5 -40 60 -48 114 -13 807 -148 1709 -332 307
-63 561 -114 563 -114 4 0 53 -102 447 -945 372 -795 574 -1235 652 -1420 64
-151 73 -164 96 -141 14 14 14 21 3 54 -41 114 -404 903 -1107 2400 -26 56
-51 102 -54 102 -3 0 -94 18 -203 41 -901 185 -1847 371 -2119 414 -21 4 -36
0 -47 -11z"/>
<path d="M1643 2375 c-140 -43 -232 -153 -204 -245 19 -65 111 -130 184 -130
10 0 34 -12 54 -27 28 -21 49 -28 99 -31 50 -3 67 -9 75 -23 13 -25 116 -28
125 -4 9 22 -14 45 -44 45 -24 0 -24 1 14 34 35 31 38 37 27 55 -9 14 -10 28
-3 46 15 39 12 111 -6 153 -47 113 -188 169 -321 127z m140 -45 c18 -1 16 -3
-10 -15 -17 -7 -40 -11 -51 -8 -44 11 -76 -55 -87 -179 -7 -76 -17 -83 -78
-52 -104 52 -82 155 46 220 51 26 122 45 145 38 8 -2 23 -4 35 -4z m118 -106
c20 -25 -16 -82 -74 -118 l-47 -29 -25 23 c-36 34 -30 59 21 103 50 41 101 50
125 21z"/>
<path d="M10576 1106 c-31 -53 -33 -89 -6 -116 47 -47 140 -7 140 60 0 37 -23
85 -45 94 -41 15 -63 6 -89 -38z m74 -46 c0 -32 -23 -51 -41 -33 -7 7 -5 16 5
26 9 9 16 20 16 26 0 6 5 11 10 11 6 0 10 -14 10 -30z"/>
<path d="M7294 2205 c-4 -9 11 -38 37 -71 24 -31 51 -65 60 -76 18 -23 54 -21
54 4 0 10 -25 49 -55 88 -54 69 -84 86 -96 55z"/>
<path d="M7600 2185 c-17 -20 -6 -31 58 -64 84 -42 192 -75 204 -63 24 24 2
45 -87 76 -49 18 -104 40 -122 49 -39 21 -38 20 -53 2z"/>
<path d="M7457 2183 c-16 -15 -5 -41 31 -76 71 -69 108 -34 41 38 -40 43 -58
53 -72 38z"/>
<path d="M7623 2015 c-9 -24 15 -44 62 -51 61 -9 105 3 105 27 0 24 -6 26 -93
33 -54 4 -69 2 -74 -9z"/>
</g>
</svg>
